<svg xmlns="http://www.w3.org/2000/svg" xmlns:xlink="http://www.w3.org/1999/xlink" id="Capa_1" x="0" y="0" version="1.1" viewBox="0 0 745 204.9" style="enable-background:new 0 0 745 204.9" xml:space="preserve"><style type="text/css">.st0{display:none}.st1{display:inline;fill:#fff}.st2{fill:#6277b5}.st3{fill:url(#SVGID_1_)}.st4{fill:#2a3180}.st5{fill:url(#SVGID_2_)}.st6{fill:url(#SVGID_3_)}.st7{fill:url(#SVGID_4_)}.st8{fill:url(#SVGID_5_)}.st9{fill:url(#SVGID_6_)}.st10{fill:url(#SVGID_7_)}.st11{fill:url(#SVGID_8_)}.st12{fill:#3a5ea5}.st13{fill:#2e4e86}</style><g id="Capa_2_1_" class="st0"><rect width="293.5" height="291.3" x="-336" y="-43.2" class="st1"/></g><g><polygon points="223.1 139.1 182.1 162.8 152.6 145.8 152.6 111.8 182.1 94.8 223.1 118.5 234.7 111.8 234.7 98.4 182.1 68.1 129.4 98.4 129.4 159.2 182.1 189.6 234.7 159.2 234.7 145.8" class="st2"/><linearGradient id="SVGID_1_" x1="257.727" x2="211.256" y1="-82.636" y2="-119.575" gradientTransform="matrix(1 0 0 1 0 214)" gradientUnits="userSpaceOnUse"><stop offset="0" style="stop-color:#29a8df"/><stop offset="1" style="stop-color:#2e318f"/></linearGradient><polygon points="223.1 118.5 234.7 111.8 234.7 98.4 223.1 105.1" class="st3"/><polygon points="182.1 81.4 182.1 94.8 223.1 118.5 223.1 105.1" class="st4"/><linearGradient id="SVGID_2_" x1="315.72" x2="149.496" y1="-44.002" y2="-101.198" gradientTransform="matrix(1 0 0 1 0 214)" gradientUnits="userSpaceOnUse"><stop offset="0" style="stop-color:#29a8df"/><stop offset="1" style="stop-color:#2e318f"/></linearGradient><polygon points="141 105.1 141 152.5 152.6 145.8 152.6 111.8 182.1 94.8 182.1 81.4" class="st5"/><linearGradient id="SVGID_3_" x1="102.682" x2="255.798" y1="-88.05" y2="-58.857" gradientTransform="matrix(1 0 0 1 0 214)" gradientUnits="userSpaceOnUse"><stop offset="0" style="stop-color:#29a8df"/><stop offset="1" style="stop-color:#2e318f"/></linearGradient><polygon points="129.4 98.4 141 105.1 141 165.9 129.4 159.2" class="st6"/><linearGradient id="SVGID_4_" x1="130.151" x2="239.775" y1="-76.069" y2="-34.364" gradientTransform="matrix(1 0 0 1 0 214)" gradientUnits="userSpaceOnUse"><stop offset="0" style="stop-color:#29a8df"/><stop offset="1" style="stop-color:#2e318f"/></linearGradient><polygon points="234.7 145.8 234.7 159.2 182.1 189.6 141 165.9 141 152.5 182.1 176.2" class="st7"/><g><linearGradient id="SVGID_5_" x1="129.8" x2="141.381" y1="-81.45" y2="-81.45" gradientTransform="matrix(1 0 0 1 0 214)" gradientUnits="userSpaceOnUse"><stop offset="0" style="stop-color:#29a8df"/><stop offset="1" style="stop-color:#2e318f"/></linearGradient><polygon points="129.8 98.8 141.4 105.5 141.4 166.3 129.8 159.6" class="st8"/></g><g><linearGradient id="SVGID_6_" x1="133.672" x2="135.417" y1="-21.29" y2="-90.212" gradientTransform="matrix(1 0 0 1 0 214)" gradientUnits="userSpaceOnUse"><stop offset="0" style="stop-color:#29a8df"/><stop offset="1" style="stop-color:#2e318f"/></linearGradient><polygon points="129.4 98.6 129.4 159.4 141 166.1 141 105.3" class="st9"/><linearGradient id="SVGID_7_" x1="160.989" x2="162.734" y1="-20.599" y2="-89.521" gradientTransform="matrix(1 0 0 1 0 214)" gradientUnits="userSpaceOnUse"><stop offset="0" style="stop-color:#29a8df"/><stop offset="1" style="stop-color:#2e318f"/></linearGradient><polygon points="141 152.7 141 166.1 182.1 189.8 182.1 176.4" class="st10"/></g><g><linearGradient id="SVGID_8_" x1="41.91" x2="145.147" y1="-157.026" y2="-113.695" gradientTransform="matrix(1 0 0 1 0 214)" gradientUnits="userSpaceOnUse"><stop offset="0" style="stop-color:#29a8df"/><stop offset=".987" style="stop-color:#2e318f"/></linearGradient><path d="M58.1,68.7v24l-2.3-1.4l-11.9,6.9V112l54.3,31.4l54.3-31.4V49.3L98.2,17.8L43.8,49.3v13.8L55.7,70L58.1,68.7 z M128.6,63.1v35.2l-30.4,17.5L82,106.5V54.8l16.2-9.3L128.6,63.1z" class="st11"/><g><polygon points="55.8 56.2 43.8 49.3 43.8 63.1 55.8 69.9" class="st4"/><polygon points="140.6 56.2 140.6 105.1 128.6 98.2 128.6 63.1 98.2 45.5 98.2 31.7" class="st4"/><path d="M98.2,31.7v13.8L55.8,69.9V56.2L98.2,31.7z M70.1,61.7v51.6l12-6.9V54.8L70.1,61.7z" class="st12"/><polygon points="58.1 92.6 55.8 91.3 43.8 98.2 58.1 106.5" class="st13"/><polygon points="128.6 98.2 98.2 115.8 82 106.5 70.1 113.4 98.2 129.6 140.6 105.1" class="st2"/></g></g></g><g><path d="M277.7,100.4h-18.8V55.3h18.4c18.8,0,21.9,12.1,21.9,22.6C299.6,88,296.5,100.4,277.7,100.4z M276.7,62.6h-10.5l0.6,0.6 v28.9l-0.6,0.6H277c12.1,0,14-6.7,14-15.3C291.4,69.3,289.1,62.6,276.7,62.6z"/><path d="M315.9,100.4h-8V55.3h8V100.4z"/><path d="M368.4,100.4h-7v-5.1c-2.5,3.2-8,5.4-13.7,5.4c-15,0-23.2-8.9-23.2-22.6c0-14,8.6-23.5,23.5-23.5c6.4,0,13.4,1.6,18.4,7 l-5.7,5.7c-3.5-4.1-8-5.4-12.7-5.4c-10.5,0-15.6,6-15.6,16.2c0,9.5,4.8,15.3,15.3,15.3c7.3,0,12.7-4.8,13-11.5l0.6-0.6H346V74h22.3 C368.4,74,368.4,100.4,368.4,100.4z"/><path d="M386.5,100.4h-8V55.3h8V100.4z"/><path d="M432.3,62.6h-15.9l0.3,0.6v37.2h-8V63.5l0.3-0.6h-15.9v-7.3h39.1v7H432.3z"/><path d="M478.7,100.4h-8.9l-4.8-9.9l0.3-0.6h-23.2l0.3,0.6l-4.8,9.9h-8.9l21-45.2h7.3L478.7,100.4z M461.9,82.3l-0.6-0.6l-6-12.7 l-1-3.8l0,0L453,69l-6,12.7l-0.6,0.6H461.9z"/><path d="M517.9,100.4h-33.4V55.3h8v36.9l-0.6,0.6H518L517.9,100.4L517.9,100.4z"/></g><g><path d="M292.6,128c-2.9-3.2-7.3-5.4-13-5.4c-12.7,0-18.1,9.5-18.1,21c0,11.1,5.1,20.4,18.1,20.4c5.7,0,10.2-1.9,13-5.4l1.9,1.9 c-3.5,3.5-8.3,5.7-15,5.7c-13.7,0-20.7-8.9-20.7-22.9s7.3-23.2,20.7-23.2c6.7,0,11.5,2.2,15,5.7L292.6,128z"/><path d="M335.3,166.1h-2.5v-21l0.3-0.3h-29.9l0.3,0.3v21H301v-45.2h2.5v21l-0.3,0.3H333l-0.3-0.3v-21h2.5L335.3,166.1L335.3,166.1z"/><path d="M382,166.1h-2.9l-5.1-11.8V154h-25.1v0.3l-5.1,11.8H341l19.4-45.2h2.2L382,166.1z M373.1,151.5l-0.3-0.3l-9.9-23.2 l-1.3-3.8l0,0l-1.3,3.8l-9.9,23.2l-0.3,0.3H373.1z"/><path d="M415.4,166.1h-27.7v-45.2h2.5v42.3l-0.3,0.3h25.4v2.6H415.4z"/><path d="M449.1,166.1h-27.7v-45.2h2.5v42.3l-0.3,0.3H449v2.6H449.1z"/><path d="M485.4,166.1h-30.2v-45.2h30.2v2.5h-28l0.3,0.3v18.4l-0.3,0.3h25.4v2.5h-25.4l0.3,0.3v18.4l-0.3,0.3h28V166.1z"/><path d="M528.4,166.1h-2.2l-25.5-35.3l-3.8-5.7l0,0v41h-2.5v-45.2h2.2l25.4,35.3l3.8,5.7l0,0v-41h2.5L528.4,166.1L528.4,166.1z"/><path d="M575.1,166.1h-1.9V155l0,0c-1.9,5.7-7.6,11.8-15.9,11.8c-13.4,0-20.7-8.6-20.7-22.6c0-14.6,7.6-23.5,20.7-23.5 c5.7,0,11.5,1.6,15.6,5.7l-1.9,1.9c-3.5-3.8-8.6-5.1-13.4-5.1c-12.4,0-18.1,8.6-18.1,21.3c0,12.1,5.7,20,17.8,20 c9.5,0,15.9-8,15.9-19.4l0.3-0.3h-15v-2.5h16.9v23.9L575.1,166.1L575.1,166.1z"/><path d="M615.2,166.1H585v-45.2h30.2v2.5h-28l0.3,0.3v18.4l-0.3,0.3h25.4v2.5h-25.4l0.3,0.3v18.4l-0.3,0.3h28V166.1z"/><path d="M659.4,166.1h-2.9l-5.4-11.8c-2.5-5.4-6-8-12.7-8h-12.1l0.3,0.3V166h-2.5v-45.2h18.4c7.6,0,13.7,4.1,13.7,12.7 c0,5.7-3.2,10.5-10.2,12.1l0,0c3.5,1.3,5.7,4.5,7.3,7.3L659.4,166.1z M642.5,123.2h-16.2l0.3,0.3v19.7l-0.3,0.3h15.6 c8.3,0,11.8-5.1,11.8-10.2C653.7,126.4,648.9,123.2,642.5,123.2z"/><path d="M679.8,166.4c-6.7,0-12.7-2.2-17.2-6.4l1.9-1.9c4.5,3.8,9.5,6,15,6c9.5,0,14-4.1,14-9.2c0-4.1-3.2-7.6-9.9-9.5 c-1-0.3-7.3-2.2-8.3-2.5c-8.3-2.5-12.4-5.4-12.4-11.1c0-5.7,4.8-11.5,16.5-11.5c6,0,11.1,2.2,15,5.7l-1.9,1.9 c-3.2-3.2-8-5.4-13-5.4c-8.9,0-14,3.8-14,8.9c0,4.8,4.5,7,11.5,8.9l7.6,2.2c8.6,2.5,11.8,6.7,11.8,11.8 C696.3,160.4,692.2,166.4,679.8,166.4z"/></g></svg>